<mxfile host="app.diagrams.net" agent="Mozilla/5.0 (Windows NT 10.0; Win64; x64) AppleWebKit/537.36 (KHTML, like Gecko) Chrome/130.0.0.0 Safari/537.36" version="24.8.4">
  <diagram name="Page-1" id="HacMiq-CMrN00IA7iR4i">
    <mxGraphModel dx="1050" dy="557" grid="1" gridSize="10" guides="1" tooltips="1" connect="1" arrows="1" fold="1" page="1" pageScale="1" pageWidth="850" pageHeight="1100" math="0" shadow="0">
      <root>
        <mxCell id="0" />
        <mxCell id="1" parent="0" />
        <mxCell id="rGNn2FTwpUsAvpHyMHpA-1" value="" style="shape=cylinder3;whiteSpace=wrap;html=1;boundedLbl=1;backgroundOutline=1;size=15;" vertex="1" parent="1">
          <mxGeometry x="110" y="60" width="120" height="150" as="geometry" />
        </mxCell>
        <mxCell id="rGNn2FTwpUsAvpHyMHpA-3" value="" style="endArrow=classic;html=1;rounded=0;exitX=1;exitY=0.5;exitDx=0;exitDy=0;exitPerimeter=0;entryX=0;entryY=0.5;entryDx=0;entryDy=0;" edge="1" parent="1" source="rGNn2FTwpUsAvpHyMHpA-1" target="rGNn2FTwpUsAvpHyMHpA-5">
          <mxGeometry width="50" height="50" relative="1" as="geometry">
            <mxPoint x="400" y="320" as="sourcePoint" />
            <mxPoint x="410" y="140" as="targetPoint" />
            <Array as="points">
              <mxPoint x="320" y="120" />
            </Array>
          </mxGeometry>
        </mxCell>
        <mxCell id="rGNn2FTwpUsAvpHyMHpA-5" value="" style="rounded=0;whiteSpace=wrap;html=1;" vertex="1" parent="1">
          <mxGeometry x="415" y="60" width="210" height="120" as="geometry" />
        </mxCell>
        <mxCell id="rGNn2FTwpUsAvpHyMHpA-6" value="Datele de intrare" style="text;html=1;align=center;verticalAlign=middle;whiteSpace=wrap;rounded=0;" vertex="1" parent="1">
          <mxGeometry x="140" y="120" width="60" height="30" as="geometry" />
        </mxCell>
        <mxCell id="rGNn2FTwpUsAvpHyMHpA-7" value="Preprocesare de imagini" style="text;html=1;align=center;verticalAlign=middle;whiteSpace=wrap;rounded=0;" vertex="1" parent="1">
          <mxGeometry x="490" y="105" width="60" height="30" as="geometry" />
        </mxCell>
        <mxCell id="rGNn2FTwpUsAvpHyMHpA-8" value="" style="rounded=0;whiteSpace=wrap;html=1;" vertex="1" parent="1">
          <mxGeometry x="650" y="240" width="175" height="100" as="geometry" />
        </mxCell>
        <mxCell id="rGNn2FTwpUsAvpHyMHpA-9" value="Segmentarea imgainii" style="text;html=1;align=center;verticalAlign=middle;whiteSpace=wrap;rounded=0;" vertex="1" parent="1">
          <mxGeometry x="707.5" y="275" width="60" height="30" as="geometry" />
        </mxCell>
        <mxCell id="rGNn2FTwpUsAvpHyMHpA-14" value="" style="endArrow=classic;html=1;rounded=0;exitX=1;exitY=0.5;exitDx=0;exitDy=0;entryX=0.5;entryY=0;entryDx=0;entryDy=0;" edge="1" parent="1" source="rGNn2FTwpUsAvpHyMHpA-5" target="rGNn2FTwpUsAvpHyMHpA-8">
          <mxGeometry width="50" height="50" relative="1" as="geometry">
            <mxPoint x="630" y="160" as="sourcePoint" />
            <mxPoint x="710" y="280" as="targetPoint" />
            <Array as="points">
              <mxPoint x="710" y="170" />
            </Array>
          </mxGeometry>
        </mxCell>
        <mxCell id="rGNn2FTwpUsAvpHyMHpA-15" value="" style="rounded=0;whiteSpace=wrap;html=1;" vertex="1" parent="1">
          <mxGeometry x="435" y="400" width="170" height="100" as="geometry" />
        </mxCell>
        <mxCell id="rGNn2FTwpUsAvpHyMHpA-16" value="" style="endArrow=classic;html=1;rounded=0;entryX=1;entryY=0.5;entryDx=0;entryDy=0;exitX=0.5;exitY=1;exitDx=0;exitDy=0;" edge="1" parent="1" source="rGNn2FTwpUsAvpHyMHpA-8" target="rGNn2FTwpUsAvpHyMHpA-15">
          <mxGeometry width="50" height="50" relative="1" as="geometry">
            <mxPoint x="740" y="350" as="sourcePoint" />
            <mxPoint x="460" y="270" as="targetPoint" />
            <Array as="points">
              <mxPoint x="710" y="405" />
              <mxPoint x="650" y="440" />
            </Array>
          </mxGeometry>
        </mxCell>
        <mxCell id="rGNn2FTwpUsAvpHyMHpA-17" value="Postprocesare imagine" style="text;html=1;align=center;verticalAlign=middle;whiteSpace=wrap;rounded=0;" vertex="1" parent="1">
          <mxGeometry x="490" y="435" width="60" height="30" as="geometry" />
        </mxCell>
        <mxCell id="rGNn2FTwpUsAvpHyMHpA-19" value="" style="rounded=1;whiteSpace=wrap;html=1;" vertex="1" parent="1">
          <mxGeometry x="150" y="330" width="170" height="85" as="geometry" />
        </mxCell>
        <mxCell id="rGNn2FTwpUsAvpHyMHpA-22" value="Interpretare rezultate și afișare&lt;div&gt;&lt;br&gt;&lt;/div&gt;" style="text;html=1;align=center;verticalAlign=middle;whiteSpace=wrap;rounded=0;" vertex="1" parent="1">
          <mxGeometry x="180" y="355" width="110" height="35" as="geometry" />
        </mxCell>
        <mxCell id="rGNn2FTwpUsAvpHyMHpA-24" value="" style="endArrow=classic;html=1;rounded=0;exitX=0;exitY=0.5;exitDx=0;exitDy=0;entryX=0.5;entryY=1;entryDx=0;entryDy=0;" edge="1" parent="1" source="rGNn2FTwpUsAvpHyMHpA-15" target="rGNn2FTwpUsAvpHyMHpA-19">
          <mxGeometry width="50" height="50" relative="1" as="geometry">
            <mxPoint x="410" y="320" as="sourcePoint" />
            <mxPoint x="460" y="270" as="targetPoint" />
          </mxGeometry>
        </mxCell>
      </root>
    </mxGraphModel>
  </diagram>
</mxfile>
